<svg xmlns="http://www.w3.org/2000/svg" xmlns:xlink="http://www.w3.org/1999/xlink" version="1.1" x="0px" y="0px" viewBox="0 0 98 122.5" xml:space="preserve"><path d="M71.225,76.825c1.13,1.181,1.189,3.068,0.016,4.242c-1.151,1.151-3.064,1.151-4.215,0c-3.06-3.06-6.068-6.192-9.094-9.293  c-0.53-0.545-1.402-0.557-1.948-0.027c-0.545,0.53-0.557,1.402-0.027,1.948l8.291,8.495c1.164,1.169,1.181,3.06,0.011,4.231  c-1.157,1.157-3.057,1.158-4.214,0c-3.191-3.191-6.325-6.447-9.48-9.679c-0.53-0.545-1.402-0.557-1.948-0.027  c-0.545,0.53-0.557,1.402-0.027,1.948l8.291,8.495c1.167,1.171,1.184,3.058,0.011,4.231c-1.16,1.16-3.055,1.16-4.215,0  c-3.465-3.465-6.868-6.983-10.293-10.492c-0.53-0.545-1.402-0.557-1.947-0.027c-0.545,0.53-0.557,1.402-0.027,1.948l8.291,8.495  c0.847,0.851,0.863,2.242,0.011,3.094l0.003,0.003l-0.017,0.017c-0.832,0.812-2.205,0.845-3.037,0.013  c-5.182-5.243-10.359-10.538-15.466-15.854c-1.954-2.034-5.205-5.418-9.533-7.605l8.118-23.442c1.361,0.348,2.683,0.587,4.002,0.726  c2.259,0.238,4.487,0.18,6.868-0.132l-3.485,3.277c-1.584,1.489-2.427,3.431-2.427,5.606v14.519c0,0.763,0.618,1.381,1.381,1.381  c3.24,0,6.512-1.081,8.899-3.013c2.236-1.81,3.706-4.351,3.706-7.453c0-2.327,1.909-4.033,3.237-5.116l15.792,15.782  c0.756,0.756,1.625,1.329,2.56,1.71L71.225,76.825z M56.153,14.989c0.658,0.381,1.501,0.157,1.883-0.502l3.681-6.376  c0.381-0.658,0.157-1.501-0.502-1.883c-0.658-0.381-1.501-0.157-1.883,0.502l-3.681,6.376C55.27,13.764,55.495,14.607,56.153,14.989  z M71.702,29.506c4.532,0,8.205-3.629,8.205-8.105c0-4.476-3.674-8.105-8.205-8.105c-4.532,0-8.205,3.628-8.205,8.105  C63.496,25.878,67.17,29.506,71.702,29.506z M59.475,44.512c-3.032-0.96-5.466-1.866-8.736-1.071  c-1.83,0.445-3.547,1.382-5.037,2.783l-7.649,7.192c-1.05,0.987-1.553,2.159-1.553,3.599v13.06c2.155-0.243,4.221-1.047,5.781-2.31  c1.618-1.309,2.681-3.125,2.681-5.317c0-3.816,2.859-6.123,4.565-7.5c0.05-0.04,0.607-0.503,0.608-0.503  c0.539-0.481,1.367-0.464,1.887,0.052l16.674,16.664c1.452,1.451,3.464,1.854,5.364,1.079c1.139-0.465,2.186-0.969,3.205-1.476  l-8.361-24.143C65.463,46.406,62.51,45.472,59.475,44.512z M56.252,35.532c-1.939,1.694-4.483,2.717-7.252,2.717  c-2.77,0-5.313-1.024-7.252-2.717c-3.711,1.887-6.287,5.713-6.37,10.122c2.481,0.019,5.043-0.335,7.967-0.996  c2.045-1.922,3.972-3.218,6.748-3.893c3.872-0.942,6.627-0.021,10.214,1.114c0.601,0.19,1.198,0.379,1.797,0.561  C61.162,39.432,59.024,36.941,56.252,35.532z M39.964,14.482c0.378,0.658,1.219,0.885,1.877,0.507  c0.658-0.378,0.885-1.219,0.507-1.877l-3.681-6.376c-0.378-0.658-1.219-0.885-1.877-0.507c-0.658,0.378-0.886,1.219-0.507,1.877  L39.964,14.482z M4.593,39.09v34.614h12.202l11.082-32C20.116,38.393,12.354,37.522,4.593,39.09z M70.123,41.705l11.082,32h12.202  V39.09C85.646,37.522,77.884,38.393,70.123,41.705z M71.702,32.268c-2.77,0-5.313-1.024-7.252-2.717  c-2.08,1.058-3.803,2.724-4.931,4.762c2.883,2.124,4.951,5.298,5.629,8.946c0.892,0.2,1.805,0.363,2.754,0.47l-1.231-3.554  l2.369-1.011c5.034-2.148,10.195-3.376,15.458-3.565c-1.054-2.62-3.04-4.775-5.543-6.048C77.015,31.245,74.471,32.268,71.702,32.268  z M26.298,29.506c4.532,0,8.205-3.629,8.205-8.105c0-4.476-3.674-8.105-8.205-8.105s-8.205,3.628-8.205,8.105  C18.093,25.878,21.767,29.506,26.298,29.506z M49,13.076c0.763,0,1.381-0.618,1.381-1.381V4.332c0-0.763-0.618-1.381-1.381-1.381  c-0.763,0-1.381,0.618-1.381,1.381v7.362C47.619,12.457,48.237,13.076,49,13.076z M31.33,40.175l-1.645,4.75  c0.998,0.247,1.971,0.428,2.934,0.548c0.127-4.567,2.41-8.616,5.863-11.16c-1.128-2.037-2.851-3.704-4.931-4.762  c-1.939,1.694-4.483,2.717-7.252,2.717s-5.313-1.024-7.252-2.717c-2.502,1.272-4.489,3.427-5.543,6.048  c5.262,0.189,10.424,1.418,15.458,3.565L31.33,40.175z M49,35.487c4.532,0,8.205-3.629,8.205-8.105c0-4.476-3.674-8.105-8.205-8.105  s-8.205,3.629-8.205,8.105C40.795,31.859,44.468,35.487,49,35.487z"/></svg>